# AST/ASF file generated using VICON BodyLanguage
# -----------------------------------------------
:version 1.10
:name VICON
:units
  mass 1.0
  length 0.45
  angle deg
:documentation
   .ast/.asf automatically generated from VICON data using
   VICON BodyBuilder and BodyLanguage model FoxedUp or BRILLIANT.MOD
:root
   order TX TY TZ RX RY RZ
   axis XYZ
   position 0 0 0  
   orientation 0 0 0 
:bonedata
  begin
     id 1 
     name lhipjoint
     direction 0.543289 -0.788407 0.288535 
     length 2.57127 
     axis 0 0 0  XYZ
  end
  begin
     id 2 
     name lfemur
     direction 0.34202 -0.939693 0  
     length 8.47298  
     axis 0 0 20  XYZ
    dof rx ry rz
    limits (-160.0 20.0)
           (-70.0 70.0)
           (-60.0 70.0)
  end
  begin
     id 3 
     name ltibia
     direction 0.34202 -0.939693 0   
     length 8.13367   
     axis 0 0 20   XYZ
    dof rx
    limits (-10.0 170.0)
  end
  begin
     id 4 
     name lfoot
     direction 0.114037 -0.313314 0.942778   
     length 2.67113   
     axis -90 7.62852e-016 20   XYZ
    dof rx rz
    limits (-45.0 90.0)
           (-70.0 20.0)
  end
  begin
     id 5 
     name ltoes
     direction 1.536e-011 -4.21847e-011 1   
     length 1.32217   
     axis -90 7.62852e-016 20   XYZ
    dof rx
    limits (-90.0 20.0)
  end
  begin
     id 6 
     name rhipjoint
     direction -0.571293 -0.770752 0.282074   
     length 2.63017  
     axis 0 0 0  XYZ 
  end
  begin
     id 7 
     name rfemur
     direction -0.34202 -0.939693 0   
     length 8.60885   
     axis 0 0 -20   XYZ
    dof rx ry rz
    limits (-160.0 20.0)
           (-70.0 70.0)
           (-70.0 60.0)
  end
  begin
     id 8 
     name rtibia
     direction -0.34202 -0.939693 0   
     length 8.07673   
     axis 0 0 -20   XYZ
    dof rx
    limits (-10.0 170.0)
 end
 begin
     id 9 
     name rfoot
     direction -0.121336 -0.333368 0.934956   
     length 2.81602  
     axis -90 -7.62852e-016 -20   XYZ
    dof rx rz
    limits (-45.0 90.0)
           (-20.0 70.0)
  end
  begin
     id 10 
     name rtoes
     direction -1.53491e-011 -4.21808e-011 1   
     length 1.38905   
     axis -90 -7.62852e-016 -20   XYZ
    dof rx
    limits (-90.0 20.0)
  end
  begin
     id 11 
     name lowerback
     direction 0.0136776 0.999869 -0.00861835   
     length 2.14087   
     axis 0 0 0   XYZ
    dof rx ry rz
    limits (-20.0 45.0)
           (-30.0 30.0)
           (-30.0 30.0)
  end
  begin
     id 12 
     name upperback
     direction -0.00789158 0.999804 0.0181308   
     length 2.14151   
     axis 0 0 0   XYZ
    dof rx ry rz
    limits (-20.0 45.0)
           (-30.0 30.0)
           (-30.0 30.0)
  end
  begin
     id 13 
     name thorax
     direction -0.0135231 0.999666 0.0220247   
     length 2.13644   
     axis 0 0 0   XYZ
    dof rx ry rz
    limits (-20.0 45.0)
           (-30.0 30.0)
           (-30.0 30.0)
  end
  begin
     id 14 
     name lowerneck
     direction -0.0392259 0.997317 0.0618018   
     length 1.65045   
     axis 0 0 0   XYZ
    dof rx ry rz
    limits (-20.0 45.0)
           (-30.0 30.0)
           (-30.0 30.0)
  end
  begin
     id 15 
     name upperneck
     direction 0.0765547 0.994276 -0.0745319   
     length 1.66045   
     axis 0 0 0   XYZ
    dof rx ry rz
    limits (-20.0 45.0)
           (-30.0 30.0)
           (-30.0 30.0)
  end
  begin
     id 16
     name head
     direction 0.0241564 0.999031 -0.036785  
     length 1.66594  
     axis 0 0 0   XYZ
    dof rx ry rz
    limits (-20.0 45.0)
           (-30.0 30.0)
           (-30.0 30.0)
  end
  begin
     id 17 
     name lclavicle
     direction 0.967398 0.249018 0.0461573  
     length 3.75176  
     axis 0 0 0   XYZ
    dof ry rz
    limits (-20.0 10.0)
           (0.0 20.0)
  end
  begin
     id 18 
     name lhumerus
     direction 1 -4.48963e-011 -3.05005e-027   
     length 5.93342   
     axis 180 -30 -90   XYZ
    dof rx ry rz
    limits (-60.0 90.0)
           (-90.0 90.0)
           (-90.0 90.0)
  end
  begin
     id 19
     name lradius
     direction 1 -4.48957e-011 1.07006e-026   
     length 3.94763   
     axis 180 -30 -90   XYZ
    dof rx
    limits (-10.0 170.0)
  end
  begin
     id 20
     name lwrist
     direction 1 -4.48978e-011 1.92422e-026   
     length 1.97382   
     axis -1.18182e-014 90 90   XYZ
    dof ry
    limits (-180.0 0.0)
 end
  begin
     id 21 
     name lhand
     direction 1 -4.48931e-011 3.84844e-026   
     length 0.560187   
     axis -2.45563e-014 90 90   XYZ
    dof rx rz
    limits (-90.0 90.0)
           (-45.0 45.0)
  end
  begin
     id 22 
     name lfingers
     direction 1 -4.48952e-011 7.69687e-026   
     length 0.451637   
     axis -4.91126e-014 90 90   XYZ
    dof rx
    limits (0.0 90.0)
  end
  begin
     id 23
     name lthumb
     direction 0.707107 -6.34901e-011 0.707107   
     length 0.648463   
     axis -90 45 2.85299e-015   XYZ
    dof rx rz
    limits (-45.0 45.0)
           (-45.0 45.0)
  end
  begin
     id 24 
     name rclavicle
     direction -0.965946 0.258716 0.00371831   
     length 3.63667  
     axis 0 0 0   XYZ 
    dof ry rz
    limits (-10.0 20.0)
           (-20.0 0.0)
  end
  begin
     id 25 
     name rhumerus
     direction -1 -4.48966e-011 -1.78361e-028  
     length 6.28647   
     axis 180 30 90   XYZ
    dof rx ry rz
    limits (-90.0 60.0)
           (-90.0 90.0)
           (-90.0 90.0)
  end
  begin
     id 26 
     name rradius
     direction -1 -4.48961e-011 1.05248e-026   
     length 3.81645   
     axis 180 30 90   XYZ
    dof rx
    limits (-10.0 170.0)
  end
  begin
     id 27 
     name rwrist
     direction -1 -4.48979e-011 1.92422e-026   
     length 1.90822   
     axis -1.18182e-014 -90 -90   XYZ
    dof ry
    limits (-180.0 0.0)
  end
  begin
     id 28
     name rhand
     direction -1 -4.48937e-011 3.84844e-026   
     length 0.646185   
     axis -2.45563e-014 -90 -90   XYZ
    dof rx rz
    limits (-90.0 90.0)
           (-45.0 45.0)
  end
  begin
     id 29
     name rfingers
     direction -1 -4.48953e-011 7.69687e-026   
     length 0.520971   
     axis -4.91126e-014 -90 -90   XYZ
    dof rx
    limits (0.0 90.0)
  end
  begin
     id 30
     name rthumb
     direction -0.707107 -6.3494e-011 0.707107   
     length 0.748013   
     axis -90 -45 -2.85299e-015   XYZ
    dof rx rz
    limits (-45.0 45.0)
           (-45.0 45.0)
  end
:hierarchy
  begin
    root lhipjoint rhipjoint lowerback
    lhipjoint lfemur
    lfemur ltibia
    ltibia lfoot
    lfoot ltoes
    rhipjoint rfemur
    rfemur rtibia
    rtibia rfoot
    rfoot rtoes
    lowerback upperback
    upperback thorax
    thorax lowerneck lclavicle rclavicle
    lowerneck upperneck
    upperneck head
    lclavicle lhumerus
    lhumerus lradius
    lradius lwrist
    lwrist lhand lthumb
    lhand lfingers
    rclavicle rhumerus
    rhumerus rradius
    rradius rwrist
    rwrist rhand rthumb
    rhand rfingers
  end

#!OML:ASF H:\HAZMAT1\Patient Classification 1\Patient 3\Session 1\dancer.ASF
:FULLY-SPECIFIED
:DEGREES
92
upperback 3.044830 -6.602530 -1.885000
rfoot -19.287201 -23.587700
lradius 29.624100
lthumb 16.338400 37.184101
rradius 23.739500
lwrist -18.083799
rhand 1.558540 -371.515015
rhumerus -66.760201 -1.565630 -77.559700
lowerneck -3.527630 9.393750 9.385420
lhand -9.631590 367.851990
ltibia 46.500000
head 2.819810 6.167430 -5.434690
rwrist 23.949499
lfingers 7.125020
rtoes 1.990900
lowerback 6.260720 -5.393040 10.286100
rfingers 7.125020
lclavicle -0.000000 -0.000000
upperneck 2.189430 12.752800 -14.922800
rfemur -53.583199 18.215000 -5.790380
thorax -1.680810 -3.253470 -7.152230
rclavicle -0.000000 -0.000000
rtibia 46.477901
lfoot -20.827999 3.083110
lhumerus 24.525600 -51.413799 40.338799
rthumb 27.082300 -39.592701
root 18.719900 18.681900 28.691299 382.553009 -7.720070 -352.970001
ltoes -1.744640
lfemur -50.595100 -385.596008 -7.625110
93
upperback 0.845911 -6.775180 0.568758
rfoot -21.706100 -14.725800
lradius 39.117500
lthumb 10.044000 34.756500
rradius 20.085800
lwrist -14.173100
rhand 14.009800 -401.084991
rhumerus -66.489197 0.991788 -68.113297
lowerneck -3.456790 12.271700 11.286600
lhand -16.161900 365.015991
ltibia 54.789700
head 4.432800 8.190450 -4.982400
rwrist 42.411598
lfingers 7.125020
rtoes -14.468400
lowerback 2.917280 -5.411410 12.819900
rfingers 7.125020
lclavicle -0.000000 0.000000
upperneck 5.677760 16.905100 -14.040700
rfemur -43.935799 7.010880 -0.216606
thorax -2.154410 -3.447250 -6.125540
rclavicle -0.000000 0.000000
rtibia 49.789600
lfoot -22.545200 13.449700
lhumerus 13.053200 -46.271198 55.841000
rthumb 38.918800 -66.627800
root 16.111799 18.416201 26.502300 383.609985 43.897400 -353.556000
ltoes 13.272200
lfemur -41.812302 -363.049988 -11.920200
94
upperback -1.180570 -4.330500 1.125790
rfoot -19.025600 -23.649799
lradius 61.163502
lthumb 7.031270 36.422798
rradius 23.856899
lwrist -4.820280
rhand 20.707500 -388.989014
rhumerus -64.526703 -4.962450 -86.199997
lowerneck -2.054090 14.700900 13.411000
lhand -19.283701 366.559998
ltibia 55.111000
head 4.909840 9.931620 -4.252010
rwrist 32.652401
lfingers 7.125020
rtoes -11.128900
lowerback 0.847291 -3.486500 13.777900
rfingers 7.125020
lclavicle 0.000000 -0.000000
upperneck 6.807420 20.159800 -11.670600
rfemur -28.114599 -28.150101 14.209100
thorax -2.673070 -2.357460 -6.335130
rclavicle 0.000000 -0.000000
rtibia 45.475300
lfoot -31.155899 39.596199
lhumerus 17.088400 -49.617298 49.258301
rthumb 45.193600 -52.412201
root 15.075900 17.784500 24.154200 248.432007 82.110497 -487.295013
ltoes 33.291901
lfemur -53.661499 -327.488007 -10.931100
95
upperback -1.906750 -3.053370 0.736050
rfoot 5.358270 -14.295500
lradius 67.406601
lthumb 7.274660 36.322601
rradius 24.156700
lwrist -5.407690
rhand -0.683615 -367.363007
rhumerus -65.637001 2.768630 -81.250702
lowerneck -6.142560 7.406080 8.002490
lhand -19.031601 366.467987
ltibia 64.888603
head 4.339120 4.882050 -3.475310
rwrist 29.757200
lfingers 7.125020
rtoes 0.854409
lowerback 0.580505 -2.455050 8.380530
rfingers 7.125020
lclavicle 0.000000 -0.000000
upperneck 8.209320 10.179400 -9.177310
rfemur -10.107300 -3.366870 9.624520
thorax -2.711470 -1.660380 -3.825400
rclavicle 0.000000 -0.000000
rtibia 67.565399
lfoot -29.998199 18.574100
lhumerus 3.009830 -40.105701 57.264500
rthumb 24.935400 -35.755901
root 15.692100 17.358500 19.702200 196.410995 31.415300 -537.145020
ltoes 17.978600
lfemur -54.357300 -343.088013 -29.538601
96
upperback -1.260700 -3.383890 -1.095100
rfoot -25.354401 -23.778601
lradius 58.286201
lthumb 9.692890 37.137402
rradius 24.172899
lwrist -11.333500
rhand 0.699850 -368.726990
rhumerus -67.994400 1.396000 -78.988297
lowerneck -5.601200 7.222420 9.037870
lhand -16.525801 367.380005
ltibia 65.294701
head 4.096040 4.517760 -4.954080
rwrist 31.209101
lfingers 7.125020
rtoes 7.012260
lowerback 1.565830 -2.647940 7.008820
rfingers 7.125020
lclavicle 0.000000 0.000000
upperneck 6.892540 9.893690 -13.229600
rfemur -47.897598 -8.013800 8.846310
thorax -2.660960 -1.827540 -4.920450
rclavicle 0.000000 0.000000
rtibia 77.963799
lfoot -35.830200 -2.930700
lhumerus -10.287100 -33.341999 64.500603
rthumb 26.260500 -36.929901
root 17.254000 17.219999 14.676500 196.572998 -28.052200 -541.505005
ltoes 4.173850
lfemur -37.587399 -374.778992 -18.162500
97
upperback -1.061990 -3.402730 -1.225670
rfoot -17.162800 -19.788601
lradius 45.559101
lthumb 8.954610 36.707699
rradius 23.845800
lwrist -16.923201
rhand 5.922960 -369.333008
rhumerus -65.656097 -2.141600 -80.322899
lowerneck -4.090950 6.444020 8.141870
lhand -17.290899 366.917999
ltibia 39.493000
head 2.761030 4.157410 -3.861640
rwrist 31.271601
lfingers 7.125020
rtoes -11.600500
lowerback 1.395330 -2.643680 6.773810
rfingers 7.125020
lclavicle -0.000000 -0.000000
upperneck 4.439950 8.636870 -9.623980
rfemur -42.367298 18.449699 -12.601700
thorax -2.354440 -1.817630 -4.937440
rclavicle -0.000000 -0.000000
rtibia 40.407501
lfoot -19.974100 4.043190
lhumerus -8.603430 -26.586901 60.658100
rthumb 31.249901 -36.686401
root 18.966200 17.796000 7.376880 180.626999 -83.297501 -519.622986
ltoes -18.310801
lfemur -40.399502 -394.691010 26.378799
98
upperback -1.341720 -5.120000 1.155630
rfoot -32.578800 -19.028799
lradius 39.465500
lthumb 12.982600 34.968102
rradius 18.922800
lwrist -16.588800
rhand 9.678600 -349.598999
rhumerus -59.965401 -2.125080 -67.338600
lowerneck -2.331530 4.224860 5.471030
lhand -13.114800 365.391998
ltibia 78.070099
head 1.084230 2.752590 -2.690140
rwrist 40.606998
lfingers 7.125020
rtoes -0.716214
lowerback 2.439240 -4.108190 9.422380
rfingers 7.125020
lclavicle 0.000000 0.000000
upperneck 1.062900 5.576410 -5.788850
rfemur -54.910999 -4.096920 23.127399
thorax -3.491340 -2.744890 -3.738250
rclavicle 0.000000 0.000000
rtibia 65.670097
lfoot -25.040400 19.052999
lhumerus -2.419840 -21.034300 61.781799
rthumb 34.821400 -16.197001
root 20.637501 17.232000 0.473714 31.405899 -56.963001 -369.899994
ltoes 8.944190
lfemur -46.494499 -363.584015 -4.304780
99
upperback -2.412930 -8.603490 1.977930
rfoot -23.123301 -28.815701
lradius 29.733801
lthumb 13.671000 37.503799
rradius 17.001101
lwrist -17.662901
rhand 9.184390 -344.944000
rhumerus -61.590302 -3.981960 -63.592701
lowerneck -2.970100 1.302190 2.216890
lhand -12.400500 367.972992
ltibia 38.297001
head 0.881291 0.832719 -0.783489
rwrist 33.932800
lfingers 7.125020
rtoes 15.976800
lowerback 0.499626 -6.599400 9.016360
rfingers 7.125020
lclavicle 0.000000 0.000000
upperneck 1.156600 1.679710 -1.439120
rfemur -66.346802 -5.923180 34.717201
thorax -3.812930 -4.505130 -2.510730
rclavicle 0.000000 0.000000
rtibia 60.685799
lfoot -24.481501 9.345830
lhumerus -3.813060 -17.210699 63.304901
rthumb 34.352402 -11.648400
root 22.174400 17.289900 -4.559490 26.688801 -35.159199 -366.350006
ltoes -15.062500
lfemur -3.770460 -360.394989 -22.181700
100
upperback -2.285380 -7.721080 1.414580
rfoot -18.974501 -8.720800
lradius 22.380199
lthumb 7.296820 42.749699
rradius 24.456499
lwrist -24.215900
rhand -15.490900 -373.809998
rhumerus -56.916901 -1.148190 -67.777496
lowerneck -1.555800 -1.506390 0.463160
lhand -19.008600 372.894989
ltibia 30.227301
head 0.246537 -1.008940 0.267149
rwrist 20.498600
lfingers 7.125020
rtoes -12.735500
lowerback 0.457133 -5.900780 7.494150
rfingers 7.125020
lclavicle -0.000000 -0.000000
upperneck -0.043599 -2.025110 1.180880
rfemur -62.292000 -14.469800 29.716200
thorax -3.419710 -4.020930 -2.363530
rclavicle -0.000000 -0.000000
rtibia 52.341400
lfoot -39.723900 18.848700
lhumerus -14.215300 -7.052470 64.573303
rthumb 10.691300 -43.517799
root 24.462200 18.013800 -8.650810 24.501900 -28.070101 -365.342010
ltoes 3.359070
lfemur -11.021000 -370.109009 -21.110800
101
upperback -2.403130 -5.787240 0.625223
rfoot -29.491501 -27.010900
lradius 14.925900
lthumb 12.652700 44.329498
rradius 28.023701
lwrist -31.403099
rhand -19.895000 -377.450989
rhumerus -48.514900 -0.525024 -70.231102
lowerneck -1.614830 -2.638960 -0.288391
lhand -13.456900 374.733002
ltibia 41.699299
head 0.827182 -1.757320 -0.069748
rwrist 17.315100
lfingers 7.125020
rtoes 1.831520
lowerback 0.423692 -4.439990 7.292430
rfingers 7.125020
lclavicle -0.000000 0.000000
upperneck 1.846460 -3.507350 -0.247866
rfemur -34.357101 -20.116199 23.046000
thorax -3.389410 -3.066120 -3.182740
rclavicle -0.000000 0.000000
rtibia 61.484699
lfoot -40.371300 19.379499
lhumerus -38.956902 14.831800 57.334702
rthumb 6.441200 -47.333401
root 25.820900 18.202700 -11.179800 17.302999 -29.358200 -364.295013
ltoes 11.120900
lfemur -18.689301 -370.571991 -21.953600
102
upperback -3.180450 -3.753040 -0.074484
rfoot -43.897900 -34.029301
lradius 14.937000
lthumb 15.926600 45.805801
rradius 34.194099
lwrist -30.283001
rhand -21.562599 -377.181000
rhumerus -45.731701 -2.546080 -81.578400
lowerneck -3.310640 -2.324190 -1.080640
lhand -10.059300 376.441010
ltibia 45.313099
head 1.507200 -1.534410 0.241691
rwrist 11.084300
lfingers 7.125020
rtoes 7.157180
lowerback -1.333150 -2.808120 7.145230
rfingers 7.125020
lclavicle 0.000000 0.000000
upperneck 2.999250 -3.065580 0.423372
rfemur -19.026699 -2.103170 24.753201
thorax -3.016560 -2.075430 -4.007020
rclavicle 0.000000 0.000000
rtibia 42.476101
lfoot -39.485802 19.034201
lhumerus -56.938301 17.179899 56.429600
rthumb 4.831100 -47.106300
root 26.120600 18.305599 -12.555500 15.748500 -35.190701 -365.375000
ltoes 15.090000
lfemur -22.132700 -368.579010 -20.162001
103
upperback -3.345290 -3.837320 -0.475781
rfoot -50.146198 -37.431702
lradius 22.733000
lthumb 15.847400 45.123600
rradius 32.270901
lwrist -14.533900
rhand -15.360000 -377.088989
rhumerus -46.593700 6.483580 -96.422798
lowerneck -3.907440 -2.481490 -2.073030
lhand -10.141500 375.752014
ltibia 45.376701
head 1.666780 -1.617210 0.913115
rwrist 7.150690
lfingers 7.125020
rtoes 14.147700
lowerback -1.142710 -2.874290 5.879320
rfingers 7.125020
lclavicle -0.000000 0.000000
upperneck 2.986550 -3.279050 2.074110
rfemur -18.405399 6.023150 25.079700
thorax -3.240890 -2.100580 -3.699540
rclavicle -0.000000 0.000000
rtibia 41.290100
lfoot -36.681499 17.314800
lhumerus -47.796902 2.203120 85.138100
rthumb 10.817600 -46.790699
root 26.201500 18.392200 -13.468500 12.858600 -35.593601 -363.699005
ltoes 15.744800
lfemur -22.835600 -367.869995 -19.732401
104
upperback -3.359350 -4.180820 -0.551240
rfoot -48.663502 -37.545101
lradius 38.334301
lthumb 8.787800 47.628201
rradius 29.909201
lwrist -6.441750
rhand -15.681400 -377.117004
rhumerus -45.442699 7.402400 -94.837601
lowerneck -3.916140 -2.193530 -1.999180
lhand -17.463800 377.830994
ltibia 45.039700
head 1.458030 -1.422520 0.991721
rwrist 8.877640
lfingers 7.125020
rtoes 15.039100
lowerback -1.142350 -3.127970 5.379630
rfingers 7.125020
lclavicle -0.000000 -0.000000
upperneck 2.345570 -2.898590 2.326860
rfemur -19.083300 5.528880 25.363300
thorax -3.259800 -2.260090 -3.487790
rclavicle -0.000000 -0.000000
rtibia 41.209000
lfoot -35.078800 17.664000
lhumerus -40.777199 -8.824170 89.765503
rthumb 10.507500 -46.834400
root 26.207399 18.468901 -13.985100 11.702400 -35.746300 -363.009003
ltoes 15.605500
lfemur -23.369900 -368.979004 -19.048300
105
upperback -3.192800 -4.109660 -0.521334
rfoot -46.486900 -36.805099
lradius 41.282600
lthumb 6.380930 48.267502
rradius 30.986200
lwrist -5.622050
rhand -18.477501 -377.734009
rhumerus -45.582401 5.221410 -92.055901
lowerneck -4.094070 -1.519690 -1.438110
lhand -19.957399 378.384003
ltibia 44.719101
head 1.724140 -0.985995 0.819358
rwrist 9.150850
lfingers 7.125020
rtoes 14.401000
lowerback -1.844680 -3.041550 5.487790
rfingers 7.125020
lclavicle -0.000000 -0.000000
upperneck 3.180550 -2.028940 2.015330
rfemur -19.937000 5.171820 25.405199
thorax -2.689860 -2.209620 -3.567810
rclavicle -0.000000 -0.000000
rtibia 41.396599
lfoot -36.082401 18.393400
lhumerus -38.879299 -4.521890 86.583099
rthumb 7.809500 -47.569801
root 26.182400 18.476200 -14.154100 11.895700 -37.646301 -363.039001
ltoes 17.638300
lfemur -23.521099 -369.102997 -18.805000
